<?xml version="1.0" standalone="no"?>
<!DOCTYPE svg PUBLIC "-//W3C//DTD SVG 20010904//EN"
 "http://www.w3.org/TR/2001/REC-SVG-20010904/DTD/svg10.dtd">
<svg version="1.0" xmlns="http://www.w3.org/2000/svg"
 width="880.000000pt" height="880.000000pt" viewBox="0 0 880.000000 880.000000"
 preserveAspectRatio="xMidYMid meet">
<metadata>
Created by potrace 1.11, written by Peter Selinger 2001-2013
</metadata>
<g transform="translate(0.000000,880.000000) scale(0.100000,-0.100000)"
fill="#000000" stroke="none">
<path d="M5867 7924 c-4 -5 -129 -16 -184 -18 -13 0 -23 -2 -23 -5 0 -4 -15
-6 -33 -7 -81 -3 -285 -57 -442 -117 -51 -20 -283 -136 -297 -150 -20 -18 -51
-37 -70 -43 -10 -4 -18 -10 -18 -15 0 -5 -6 -9 -14 -9 -8 0 -16 -3 -18 -7 -1
-5 -29 -28 -62 -53 -32 -24 -86 -70 -120 -101 -173 -161 -3598 -3596 -3653
-3664 -35 -44 -76 -100 -90 -125 -14 -25 -29 -47 -32 -50 -3 -3 -7 -12 -9 -20
-2 -8 -8 -16 -13 -18 -5 -2 -9 -9 -9 -15 0 -7 -11 -34 -24 -62 -21 -42 -32
-69 -41 -95 -1 -3 -5 -13 -8 -22 -17 -43 -20 -54 -23 -65 -1 -7 -9 -40 -17
-75 -27 -109 -31 -158 -31 -328 1 -168 6 -222 25 -295 6 -22 13 -48 15 -58 25
-133 141 -366 252 -507 37 -47 217 -230 227 -230 2 0 31 -19 62 -43 59 -44
144 -96 153 -93 3 0 19 -8 35 -20 32 -22 197 -87 221 -87 8 0 14 -4 14 -8 0
-5 7 -6 15 -3 8 4 15 1 15 -6 0 -6 4 -9 8 -6 5 3 35 -1 68 -8 32 -8 66 -14 74
-15 8 0 38 -4 65 -7 123 -14 276 -7 425 20 69 13 221 63 300 99 62 28 194 101
215 119 20 17 206 128 214 128 5 0 14 6 20 14 7 8 26 21 44 30 18 9 61 34 96
56 34 22 67 40 72 40 5 0 9 4 9 8 0 4 12 13 28 20 33 14 95 52 102 61 3 4 20
14 38 22 17 8 32 17 32 21 0 5 5 8 10 8 6 0 39 18 74 40 35 22 68 40 75 40 6
0 11 3 11 8 0 4 28 23 63 41 34 19 64 37 67 40 3 4 22 15 44 26 21 11 40 26
43 32 3 7 9 11 13 8 4 -3 18 3 31 13 13 10 41 26 62 37 20 11 37 23 37 27 0 5
5 8 11 8 7 0 36 16 65 35 29 19 57 35 63 35 6 0 11 5 11 10 0 6 4 10 9 10 10
0 233 130 241 141 3 4 28 19 55 33 28 15 70 41 95 57 25 16 52 32 60 36 8 4
50 29 92 55 43 26 82 48 88 48 5 0 10 5 10 10 0 6 7 10 15 10 8 0 15 5 15 10
0 6 5 10 10 10 6 0 36 16 66 35 30 19 57 35 59 35 9 0 90 54 93 63 2 4 12 7
23 7 10 0 19 3 19 8 0 4 17 16 38 27 46 24 115 68 122 77 3 4 17 11 30 17 14
6 42 21 62 33 144 89 211 128 219 128 5 0 9 4 9 8 0 5 15 16 33 25 17 9 50 28
72 42 22 14 48 28 58 31 9 4 17 10 17 14 0 4 18 15 40 25 22 10 40 22 40 27 0
4 6 8 14 8 7 0 47 22 87 49 41 27 77 47 82 44 4 -2 7 1 7 6 0 6 7 11 15 11 8
0 15 3 15 8 0 4 18 16 40 26 22 11 40 23 40 27 0 4 10 11 23 15 12 3 45 21 72
39 45 28 150 93 197 120 75 43 284 170 288 175 3 3 16 11 30 18 14 6 32 16 40
22 8 5 69 42 135 82 66 39 125 75 130 80 6 4 24 19 41 33 18 14 35 25 39 25 3
0 12 6 19 13 7 6 39 35 72 62 110 94 301 305 326 361 6 13 15 24 20 24 4 0 8
6 8 14 0 8 4 16 8 18 11 4 102 154 102 168 0 5 5 10 11 10 5 0 8 4 5 8 -3 5 3
22 13 38 33 55 116 275 136 363 25 106 46 217 51 266 3 33 7 76 9 95 13 116 1
370 -24 500 -6 30 -12 64 -14 75 -2 11 -6 27 -9 35 -5 14 -47 163 -53 185 -2
12 -7 25 -48 124 -142 348 -396 661 -718 883 -36 25 -75 49 -87 52 -12 4 -22
11 -22 15 0 4 -18 16 -40 26 -22 10 -40 23 -40 28 0 6 -3 8 -6 5 -3 -4 -32 7
-65 23 -50 25 -100 48 -119 54 -3 1 -18 7 -35 14 -16 7 -34 14 -40 15 -5 1
-23 6 -40 13 -16 6 -50 16 -75 23 -25 7 -56 16 -70 20 -14 5 -43 12 -65 16
-22 4 -47 8 -55 10 -8 2 -29 5 -46 9 -54 10 -157 18 -239 19 -44 1 -83 6 -87
11 -5 6 -8 5 -8 -2 0 -9 -7 -10 -24 -3 -13 5 -26 7 -29 4z"/>
</g>
</svg>
