<?xml version="1.0" encoding="utf-8"?>
<!-- Generator: Adobe Illustrator 23.0.3, SVG Export Plug-In . SVG Version: 6.00 Build 0)  -->
<svg version="1.1" id="Слой_1" xmlns="http://www.w3.org/2000/svg" xmlns:xlink="http://www.w3.org/1999/xlink" x="0px" y="0px"
	 viewBox="0 0 200 200" style="enable-background:new 0 0 200 200;" xml:space="preserve">
<style type="text/css">
	.st0{fill:#8C633F;}
	.st1{fill:#A6835A;}
	.st2{fill:#8C633F;stroke:#000000;}
	.st3{fill:none;stroke:#000000;}
</style>
<path class="st0" d="M100,0C44.8,0,0,44.8,0,100c0,5.5,4.5,10,10,10s10-4.5,10-10c0-44.2,35.8-80,80-80s80,35.8,80,80
	c0,5.5,4.5,10,10,10s10-4.5,10-10C200,44.8,155.2,0,100,0z"/>
<g>
	<path class="st1" d="M249.3,31C249.3,31,249.3,31,249.3,31L241-17.5l-27.7,0.7l-3.6,49.7l0,0c-0.1,1.6-0.1,3.2,0.2,4.8
		c1.9,10.9,12.2,18.2,23.1,16.3S251.2,41.9,249.3,31z"/>
	<circle class="st2" cx="229.6" cy="34.5" r="13.5"/>
	<path class="st3" d="M232,48.3l-4.7-27.6"/>
	<circle class="st0" cx="227.2" cy="-15.1" r="14"/>
</g>
<g>
	<path d="M14.4,64.2l0.8-1.9l8.1,0.9l-0.7,1.7l-4-0.6c-0.8-0.1-1.7-0.3-2.6-0.4l0,0c0.7,0.5,1.4,1.1,2.1,1.6l3.2,2.5l-0.7,1.7
		L14.4,64.2z M18.3,66.8l1.5-3.4l1.3,0.5l-1.5,3.4L18.3,66.8z"/>
	<path d="M16.9,58.7l1.3-2.5c0.8-1.5,1.9-2.4,3.6-1.5c1.6,0.8,1.6,2.4,0.8,3.9l-0.5,0.9l2.5,1.3l-0.8,1.6L16.9,58.7z M21.3,58.1
		c0.4-0.8,0.3-1.5-0.4-1.8c-0.7-0.4-1.1,0-1.6,0.8l-0.4,0.8l1.9,1L21.3,58.1z M21.6,57.1l5.1-0.1l-0.9,1.7l-3.7,0L21.6,57.1z"/>
	<path d="M20.5,52.1l1-1.6l2.7,0.9l1.1,0.4l0,0l-0.8-0.8l-1.9-2.2l1-1.6l6.6,4.2l-0.8,1.3l-2-1.3c-0.7-0.5-2.3-1.6-2.9-2.2l0,0
		l1.4,1.6l1.3,1.5l-0.5,0.7l-1.9-0.5L22.6,52l0,0c0.8,0.4,2.4,1.3,3.2,1.8l2,1.3L27,56.4L20.5,52.1z"/>
	<path d="M30,47.3l-5.6-1.2l1.2-1.5l2,0.5c0.6,0.2,1.2,0.3,1.9,0.5l0,0c-0.3-0.6-0.6-1.1-1-1.7l-1-1.8l1.1-1.5l2.6,5.2l2.1,1.6
		l-1.1,1.4L30,47.3z"/>
</g>
<g>
	<path d="M83.8,8.6l1.8-0.3l2.2,3.6l0.9,1.6l0,0c-0.2-0.8-0.5-1.9-0.7-2.8L87.7,8l1.7-0.2l1.1,7.7l-1.8,0.3l-2.2-3.6l-0.9-1.6l0,0
		c0.2,0.8,0.5,1.9,0.7,2.8l0.4,2.7l-1.7,0.2L83.8,8.6z"/>
	<path d="M93.1,7.4l2.1-0.1l2.9,7.6L96.3,15l-1.3-3.9c-0.2-0.8-0.5-1.7-0.8-2.5l0,0c-0.1,0.8-0.3,1.8-0.4,2.6l-0.8,4l-1.8,0.1
		L93.1,7.4z M92.6,12l3.7-0.2l0.1,1.4l-3.7,0.2L92.6,12z"/>
	<path d="M98.4,7.1l1.9,0l0.9,3.7c0.2,0.9,0.4,1.7,0.6,2.5l0,0c0.3-0.9,0.4-1.6,0.7-2.5l1-3.6l1.8,0l-2.5,7.8l-2.1,0L98.4,7.1z"/>
	<path d="M108.1,12.7l-2-5.4l1.9,0.2l0.6,2c0.2,0.6,0.3,1.2,0.5,1.9l0,0c0.3-0.6,0.6-1.1,0.9-1.7l1-1.8l1.8,0.2l-3,4.9l-0.3,2.6
		l-1.8-0.2L108.1,12.7z"/>
</g>
<g>
	<path d="M160.8,29.9l1.6,1.4l-3.4,7.5l-1.4-1.2l1.9-3.6c0.4-0.7,0.8-1.6,1.2-2.3l0,0c-0.7,0.5-1.5,1-2.1,1.5l-3.4,2.3l-1.4-1.2
		L160.8,29.9z M157.2,32.8l2.8,2.5l-0.9,1l-2.8-2.5L157.2,32.8z"/>
	<path d="M160.7,38.3l1.3,1.3l3.5-3.4l-1.3-1.3l1.1-1l3.8,3.9l-1.1,1l-1.3-1.3l-3.5,3.4l1.3,1.3l-1.1,1l-3.7-3.9L160.7,38.3z"/>
	<path d="M170.5,39.5l1.8,2.2c1,1.3,1.5,2.7,0,3.9c-1.4,1.1-2.9,0.6-3.9-0.7l-0.6-0.8l-2.2,1.8l-1.1-1.4L170.5,39.5z M170.2,44.5
		l-1.9,4.7l-1.2-1.5l1.5-3.4L170.2,44.5z M169.4,43.8c0.6,0.7,1.2,0.9,1.8,0.4c0.6-0.5,0.5-1-0.1-1.8l-0.5-0.7l-1.7,1.4L169.4,43.8z
		"/>
	<path d="M175.5,45.9l2.9,4.3l-1.2,0.8l-1.9-2.8l-1.5,1l1.6,2.4l-1.2,0.8l-1.6-2.4l-2.5,1.7l-1-1.5L175.5,45.9z"/>
	<path d="M175.9,53.5c2.3-1.3,4.1-0.9,5,0.8c0.9,1.6,0.3,3.4-2,4.7c-2.3,1.3-4.2,0.9-5.1-0.7C173,56.7,173.6,54.9,175.9,53.5z
		 M178.1,57.4c1.4-0.8,1.9-1.7,1.5-2.4c-0.4-0.7-1.4-0.7-2.8,0.1c-1.5,0.8-2,1.7-1.6,2.4C175.7,58.2,176.7,58.3,178.1,57.4z"/>
	<path d="M183.2,58.7l1.2,2.5c0.7,1.5,0.7,3-1,3.8c-1.6,0.8-2.9-0.2-3.6-1.7l-0.4-0.9l-2.6,1.2l-0.7-1.6L183.2,58.7z M181.6,63.5
		l-3,4.1l-0.8-1.8l2.3-3L181.6,63.5z M181,62.6c0.4,0.8,1,1.1,1.7,0.8c0.7-0.3,0.7-0.9,0.3-1.7l-0.4-0.8l-2,0.9L181,62.6z"/>
	<path d="M182.5,66.9c2.4-0.9,4.4,0.1,5.1,2.1c0.3,0.9,0.2,1.9-0.1,2.5l-1.4-0.5c0.2-0.5,0.3-0.9,0.1-1.5c-0.4-1-1.5-1.5-3-1
		c-1.5,0.5-2.1,1.6-1.7,2.7c0.2,0.5,0.6,0.9,1.1,1.1l-0.7,1.3c-0.9-0.3-1.6-1-2-2C179.3,69.8,180.1,67.8,182.5,66.9z"/>
	<path d="M188.9,73.2l1.4,5l-1.4,0.4l-0.9-3.3l-1.5,0.4l0.8,2.8l-1.4,0.4l-0.8-2.8l-1.7,0.5l0.9,3.4l-1.4,0.4l-1.4-5.1L188.9,73.2z"
		/>
</g>
<circle class="st1" cx="100" cy="100" r="20"/>
</svg>
